# Blender 4.4.3
# www.blender.org
mtllib darthvador.mtl
o darthvader
v -130.901703 117.557053 95.105652
v -200.000000 0.000000 0.000000
v -161.803406 0.000000 117.557053
v 50.000000 117.557053 -153.884171
v 19.098301 190.211304 -58.778526
v 130.901703 117.557053 -95.105652
v 200.000000 0.000000 0.000000
v 161.803406 117.557053 0.000000
v 61.803398 0.000000 -190.211304
v -50.000000 117.557053 -153.884171
v -61.803398 0.000000 -190.211304
v 161.803406 0.000000 -117.557053
v -161.803406 0.000000 -117.557053
v -130.901703 117.557053 -95.105652
v 50.000000 190.211304 -36.327126
v 61.803398 190.211304 0.000000
v -61.803398 190.211304 0.000000
v -161.803406 117.557053 0.000000
v -50.000000 117.557053 153.884171
v -61.803398 0.000000 190.211304
v 130.901703 117.557053 95.105652
v 61.803398 0.000000 190.211304
v 161.803406 0.000000 117.557053
v -19.098301 190.211304 -58.778526
v 19.098301 190.211304 58.778526
v 50.000000 117.557053 153.884171
v -50.000000 190.211304 36.327126
v -19.098301 190.211304 58.778526
v 50.000000 190.211304 36.327126
v -50.000000 190.211304 -36.327126
v 226.524765 -200.000000 -164.579865
v 280.000000 -200.000000 0.000000
v -280.000000 -200.000000 0.000000
v -110.000000 -200.000000 44.805576
v -161.803406 -200.000000 82.442947
v 161.803406 -200.000000 82.442947
v 226.524765 -200.000000 164.579865
v 195.755051 -200.000000 186.935379
v 110.000000 -200.000000 44.805576
v 110.000000 -200.000000 -73.333336
v 86.524757 -200.000000 -266.295837
v -86.524757 -200.000000 -266.295837
v -110.000000 -200.000000 -73.333336
v -226.524765 -200.000000 164.579865
v -195.755051 -200.000000 186.935379
v -226.524765 -200.000000 -164.579865
v -66.335365 -14.553886 193.762283
v -63.298977 -12.099494 194.814224
v -88.637749 -32.581505 186.035751
v -187.605759 -178.913651 182.940781
v -168.551422 -129.610413 173.600800
v -59.832806 -9.788696 193.935150
v 59.832806 -9.788696 193.935150
v 63.298977 -12.099494 194.814224
v 66.335365 -14.553886 193.762283
v 88.637749 -32.581505 186.035751
v 187.605759 -178.913651 182.940781
v 168.551422 -129.610413 173.600800
v -150.322495 -82.442947 164.665421
v 150.322495 -82.442947 164.665421
v 53.738949 -32.299553 129.966049
v 23.827444 -20.907579 126.666664
v 52.004364 -33.559807 126.666664
v 19.098301 -9.788696 141.221481
v 50.000000 -9.788696 163.672867
v 62.518986 -25.920485 146.666672
v 73.407036 -30.809525 146.666672
v 100.552330 -50.531738 146.666672
v 160.089493 -130.501419 146.666672
v 144.474350 -82.442947 146.666672
v 159.754944 -131.531021 144.607437
v 126.086296 -167.827408 68.781792
v 148.974976 -151.197800 91.763336
v 154.721359 -147.022827 113.623856
v -126.086296 -167.827408 68.781792
v -148.974976 -151.197800 91.763336
v -154.721359 -147.022827 113.623856
v -159.754944 -131.531021 144.607437
v -19.098301 -9.788696 141.221481
v -50.000000 -9.788696 163.672867
v -73.407036 -30.809525 146.666672
v -100.552330 -50.531738 146.666672
v -144.474350 -82.442947 146.666672
v -160.089493 -130.501419 146.666672
v -23.827444 -20.907579 126.666664
v -53.738949 -32.299553 129.966049
v -62.518986 -25.920485 146.666672
v -52.004364 -33.559807 126.666664
v -25.278641 -52.977180 146.666672
v -10.000000 -100.000000 126.666664
v -25.278641 -52.977180 126.666664
v -10.000000 -100.000000 146.666672
v -114.721359 -176.084518 146.666672
v -65.278641 -176.084518 126.666664
v -65.278641 -176.084518 146.666672
v -114.721359 -176.084518 126.666664
v -154.721359 -147.022827 146.666672
v -25.278641 -147.022827 146.666672
v -25.278641 -147.022827 126.666664
v -126.086296 -167.827408 126.666664
v 25.278641 -147.022827 146.666672
v 10.000000 -100.000000 126.666664
v 25.278641 -147.022827 126.666664
v 10.000000 -100.000000 146.666672
v 25.278641 -52.977180 126.666664
v 25.278641 -52.977180 146.666672
v 126.086296 -167.827408 126.666664
v 154.721359 -147.022827 146.666672
v 114.721359 -176.084518 146.666672
v 114.721359 -176.084518 126.666664
v 65.278641 -176.084518 126.666664
v 65.278641 -176.084518 146.666672
v -80.000000 -260.000000 186.666672
v 80.000000 -260.000000 126.666664
v 80.000000 -260.000000 186.666672
v -80.000000 -260.000000 126.666664
v 0.000000 -140.000000 186.666672
v 0.000000 -140.000000 126.666664
v -80.000000 -260.000000 -73.333336
v 80.000000 -260.000000 -73.333336
v 240.000000 -420.000000 -73.333336
v 240.000000 -420.000000 126.666664
v -240.000000 -420.000000 126.666664
v -240.000000 -420.000000 -73.333336
vn -0.9087 0.2952 0.2952
vn 0.3568 0.7947 -0.4911
vn 0.9087 0.2952 -0.2952
vn -0.0000 0.2952 -0.9554
vn 0.5616 0.2952 -0.7730
vn -0.9087 0.2952 -0.2952
vn 0.5774 0.7947 -0.1876
vn -0.5774 0.7947 0.1876
vn -0.5616 0.2952 0.7730
vn 0.5616 0.2952 0.7730
vn -0.5616 0.2952 -0.7730
vn -0.0000 0.7947 -0.6071
vn 0.3568 0.7947 0.4911
vn -0.3568 0.7947 -0.4911
vn -0.5774 0.7947 -0.1876
vn -0.0000 0.2952 0.9554
vn 0.9087 0.2952 0.2952
vn 0.5774 0.7947 0.1876
vn -0.3568 0.7947 0.4911
vn -0.0000 0.7947 0.6071
vn -0.0000 1.0000 -0.0000
vn 0.8889 0.3556 -0.2888
vn -0.0000 -1.0000 -0.0000
vn -0.5494 0.3556 0.7561
vn -0.5494 0.3556 0.7562
vn 0.5494 0.3556 -0.7561
vn -0.0000 0.3556 0.9347
vn -0.5494 0.3556 -0.7561
vn -0.0000 0.3556 -0.9347
vn -0.8889 0.3556 -0.2888
vn 0.5494 0.3556 0.7561
vn 0.5494 0.3556 0.7562
vn -0.8889 0.3556 0.2888
vn 0.8889 0.3556 0.2888
vn -0.3568 -0.7947 0.4911
vn -0.5774 -0.7947 0.1876
vn -0.5774 -0.7946 0.1876
vn -0.5773 -0.7947 0.1876
vn -0.9087 -0.2952 0.2952
vn -0.5616 -0.2952 0.7730
vn 0.5616 -0.2952 0.7730
vn 0.9087 -0.2952 0.2952
vn 0.5774 -0.7946 0.1876
vn 0.5773 -0.7947 0.1876
vn 0.5774 -0.7947 0.1876
vn -0.0000 -0.7947 0.6071
vn 0.3568 -0.7947 0.4911
vn 0.9511 0.3090 -0.0000
vn 0.5878 0.8090 -0.0000
vn -0.0000 -0.0000 1.0000
vn 0.5878 -0.8090 -0.0000
vn 0.9511 -0.3090 -0.0000
vn -0.5878 -0.8090 -0.0000
vn -0.9511 -0.3090 -0.0000
vn -0.5878 0.8090 -0.0000
vn -0.9511 0.3090 -0.0000
vn 0.8321 0.5547 -0.0000
vn -0.8321 0.5547 -0.0000
vn -0.8944 -0.4472 -0.0000
vn 0.8944 -0.4472 -0.0000
vn -0.0000 -0.0000 -1.0000
vn 0.7071 0.7071 -0.0000
vn -0.7071 0.7071 -0.0000
s 0
f 1//1 2//1 3//1
f 4//2 5//2 6//2
f 7//3 6//3 8//3
f 9//4 10//4 4//4
f 10//4 9//4 11//4
f 12//3 6//3 7//3
f 12//5 9//5 6//5
f 13//6 2//6 14//6
f 6//2 5//2 15//2
f 6//7 15//7 16//7
f 17//8 18//8 1//8
f 19//9 1//9 20//9
f 21//10 22//10 23//10
f 6//7 16//7 8//7
f 9//5 4//5 6//5
f 11//11 13//11 14//11
f 4//12 24//12 5//12
f 24//12 4//12 10//12
f 21//13 25//13 26//13
f 21//10 26//10 22//10
f 10//14 14//14 24//14
f 14//15 18//15 17//15
f 20//16 26//16 19//16
f 26//16 20//16 22//16
f 7//17 21//17 23//17
f 1//9 3//9 20//9
f 8//17 21//17 7//17
f 8//18 16//18 21//18
f 11//11 14//11 10//11
f 17//8 1//8 27//8
f 28//19 1//19 19//19
f 28//20 26//20 25//20
f 26//20 28//20 19//20
f 29//13 25//13 21//13
f 16//18 29//18 21//18
f 14//6 2//6 18//6
f 18//1 2//1 1//1
f 30//15 14//15 17//15
f 27//19 1//19 28//19
f 15//21 29//21 16//21
f 5//21 29//21 15//21
f 5//21 25//21 29//21
f 24//21 25//21 5//21
f 24//21 28//21 25//21
f 30//21 28//21 24//21
f 30//21 27//21 28//21
f 27//21 30//21 17//21
f 24//14 14//14 30//14
f 31//22 7//22 32//22
f 33//23 34//23 35//23
f 36//23 32//23 37//23
f 36//23 37//23 38//23
f 39//23 32//23 36//23
f 32//23 39//23 40//23
f 32//23 40//23 31//23
f 40//23 41//23 31//23
f 40//23 42//23 41//23
f 43//23 42//23 40//23
f 34//23 33//23 43//23
f 44//23 35//23 45//23
f 35//23 44//23 33//23
f 43//23 46//23 42//23
f 43//23 33//23 46//23
f 20//24 47//24 48//24
f 47//25 20//25 49//25
f 44//24 50//24 51//24
f 50//24 44//24 45//24
f 31//26 9//26 12//26
f 20//27 52//27 22//27
f 52//27 20//27 48//27
f 53//27 22//27 52//27
f 22//27 53//27 54//27
f 42//28 46//28 11//28
f 41//29 11//29 9//29
f 11//29 41//29 42//29
f 41//26 9//26 31//26
f 31//22 12//22 7//22
f 11//28 46//28 13//28
f 46//30 33//30 2//30
f 55//31 22//31 54//31
f 22//32 55//32 56//32
f 37//31 57//31 38//31
f 57//31 37//31 58//31
f 2//33 33//33 44//33
f 13//30 46//30 2//30
f 2//33 44//33 3//33
f 3//24 49//24 20//24
f 3//24 59//24 49//24
f 3//24 51//24 59//24
f 51//24 3//24 44//24
f 32//34 7//34 37//34
f 56//31 23//31 22//31
f 60//31 23//31 56//31
f 58//31 23//31 60//31
f 23//31 58//31 37//31
f 7//34 23//34 37//34
f 61//35 62//35 63//35
f 62//35 61//35 64//35
f 65//35 66//35 67//35
f 65//35 61//35 66//35
f 61//35 65//35 64//35
f 55//36 67//36 68//36
f 53//37 55//37 54//37
f 55//38 53//38 65//38
f 55//36 65//36 67//36
f 69//39 60//39 70//39
f 69//39 58//39 60//39
f 57//39 69//39 71//39
f 69//39 57//39 58//39
f 60//38 68//38 70//38
f 56//36 68//36 60//36
f 68//36 56//36 55//36
f 36//40 72//40 39//40
f 72//40 36//40 73//40
f 36//39 74//39 73//39
f 57//39 74//39 36//39
f 74//39 57//39 71//39
f 57//39 36//39 38//39
f 35//41 75//41 76//41
f 75//41 35//41 34//41
f 77//42 35//42 76//42
f 50//42 77//42 78//42
f 77//42 50//42 35//42
f 35//42 50//42 45//42
f 53//23 64//23 65//23
f 53//23 79//23 64//23
f 52//23 79//23 53//23
f 79//23 52//23 80//23
f 47//43 52//43 48//43
f 52//44 47//44 80//44
f 47//45 81//45 80//45
f 81//45 47//45 82//45
f 83//42 59//42 84//42
f 51//42 84//42 59//42
f 50//42 84//42 51//42
f 84//42 50//42 78//42
f 79//46 62//46 64//46
f 62//46 79//46 85//46
f 49//45 82//45 47//45
f 59//45 82//45 49//45
f 82//44 59//44 83//44
f 80//47 86//47 79//47
f 80//47 87//47 86//47
f 87//47 80//47 81//47
f 86//47 85//47 79//47
f 85//47 86//47 88//47
f 89//48 90//48 91//48
f 90//48 89//48 92//48
f 93//23 94//23 95//23
f 94//23 93//23 96//23
f 86//49 91//49 88//49
f 91//49 86//49 89//49
f 89//49 86//49 87//49
f 89//50 81//50 82//50
f 81//50 89//50 87//50
f 95//50 82//50 83//50
f 82//50 92//50 89//50
f 93//50 83//50 84//50
f 93//50 84//50 97//50
f 82//50 98//50 92//50
f 83//50 93//50 95//50
f 82//50 95//50 98//50
f 95//51 99//51 98//51
f 99//51 95//51 94//51
f 92//52 99//52 90//52
f 99//52 92//52 98//52
f 93//53 100//53 96//53
f 100//53 76//53 75//53
f 97//53 100//53 93//53
f 100//53 97//53 77//53
f 100//53 77//53 76//53
f 97//54 78//54 77//54
f 78//54 97//54 84//54
f 101//54 102//54 103//54
f 102//54 101//54 104//54
f 105//55 61//55 63//55
f 106//55 61//55 105//55
f 61//55 106//55 66//55
f 107//51 74//51 108//51
f 74//51 107//51 73//51
f 109//51 107//51 108//51
f 107//51 109//51 110//51
f 73//51 107//51 72//51
f 101//53 111//53 112//53
f 111//53 101//53 103//53
f 104//56 105//56 102//56
f 105//56 104//56 106//56
f 106//50 67//50 66//50
f 67//50 106//50 68//50
f 104//50 68//50 106//50
f 101//50 68//50 104//50
f 112//50 68//50 101//50
f 68//50 112//50 70//50
f 109//50 70//50 112//50
f 70//50 109//50 69//50
f 69//50 109//50 108//50
f 108//52 71//52 69//52
f 71//52 108//52 74//52
f 112//23 110//23 109//23
f 110//23 112//23 111//23
f 113//23 114//23 115//23
f 114//23 113//23 116//23
f 117//57 114//57 118//57
f 114//57 117//57 115//57
f 117//50 113//50 115//50
f 113//58 118//58 116//58
f 118//58 113//58 117//58
f 119//59 34//59 43//59
f 116//59 34//59 119//59
f 116//59 75//59 34//59
f 75//59 116//59 100//59
f 39//60 120//60 40//60
f 107//60 39//60 72//60
f 114//60 39//60 107//60
f 39//60 114//60 120//60
f 120//61 43//61 40//61
f 43//61 120//61 119//61
f 96//50 116//50 94//50
f 116//50 96//50 100//50
f 91//50 85//50 88//50
f 85//50 91//50 62//50
f 105//50 62//50 91//50
f 62//50 105//50 63//50
f 90//50 105//50 91//50
f 90//50 102//50 105//50
f 90//50 118//50 102//50
f 99//50 118//50 90//50
f 116//50 99//50 94//50
f 99//50 116//50 118//50
f 118//50 103//50 102//50
f 114//50 103//50 118//50
f 111//50 114//50 110//50
f 103//50 114//50 111//50
f 107//50 110//50 114//50
f 114//62 121//62 120//62
f 121//62 114//62 122//62
f 123//63 119//63 124//63
f 119//63 123//63 116//63
f 123//23 121//23 122//23
f 121//23 123//23 124//23
f 121//61 119//61 120//61
f 119//61 121//61 124//61
f 123//50 114//50 116//50
f 114//50 123//50 122//50
