# Blender 4.4.3
# www.blender.org
mtllib so66.mtl
o so66
v 12.118260 14.980453 0.000000
v -0.000002 20.000000 -0.000001
v -0.000002 20.000000 -0.000001
v 14.142136 14.142136 0.000000
v 18.876261 1.123740 0.000000
v 20.000000 0.000000 0.000000
v -0.000002 20.000000 -0.000001
v -0.000002 20.000000 -0.000001
v 18.876261 -1.123740 0.000000
v -0.000002 -20.000000 -0.000001
v -0.000002 -20.000000 -0.000001
v -0.000002 -20.000000 -0.000001
v -0.000002 -20.000000 -0.000001
v 14.142136 -14.142136 0.000000
v 12.118260 -14.980453 0.000000
v -0.000002 -20.000000 -0.000001
v -6.814835 -20.000000 51.763809
v -14.547470 -14.142136 107.071068
v -26.794920 -20.000000 100.000000
v 6.845415 -14.142136 55.424057
v -20.475084 -14.142136 48.103558
v -39.042370 -14.142136 92.928932
v -26.133347 0.000000 46.587429
v -44.115429 0.000000 90.000000
v -39.042370 14.142136 92.928932
v -20.475084 14.142136 48.103558
v -26.794920 20.000000 100.000000
v -6.814835 20.000000 51.763809
v -14.547470 14.142136 107.071068
v 6.845415 14.142136 55.424057
v -9.474411 0.000000 110.000000
v 12.503677 0.000000 56.940189
v -0.000002 -20.000000 0.000000
v -0.000002 -20.000000 0.000000
v -0.000002 -20.000000 0.000001
v -0.000002 -20.000000 0.000001
v -0.000002 -20.000000 0.000001
v -0.000002 -20.000000 0.000001
v -14.142140 -14.142136 0.000000
v -14.142141 -14.142136 0.000000
v -20.000004 -0.000001 0.000000
v -20.000006 0.000000 0.000000
v -14.142141 14.142135 0.000000
v -14.142141 14.142136 0.000000
v -0.000002 20.000000 -0.000001
v -0.000002 20.000000 0.000000
v -0.000003 20.000000 0.000000
v -0.000002 20.000000 0.000001
v -0.000002 20.000000 0.000001
v -0.000002 20.000000 0.000001
v -0.000002 20.000000 0.000001
v -40.455173 14.142136 103.660255
v -46.113438 0.000000 105.176384
v -36.794918 0.000000 117.320511
v -23.134665 -14.142136 113.660255
v -40.455173 -14.142136 103.660255
v -33.865986 -14.142136 112.247452
v -21.618538 0.000000 119.318520
v -33.865986 14.142136 112.247452
v -23.134665 14.142136 113.660255
v -0.000002 20.000000 0.000001
v 14.142136 14.142136 -0.000000
v 20.000000 0.000000 -0.000000
v -0.000002 -20.000000 0.000001
v 14.142136 -14.142136 -0.000000
v -6.814835 -20.000000 -51.763809
v -26.794920 -20.000000 -100.000000
v -14.547470 -14.142136 -107.071068
v 6.845415 -14.142136 -55.424057
v -20.475084 -14.142136 -48.103558
v -39.042370 -14.142136 -92.928932
v -26.133347 0.000000 -46.587429
v -44.115429 0.000000 -90.000000
v -39.042370 14.142136 -92.928932
v -20.475084 14.142136 -48.103558
v -26.794920 20.000000 -100.000000
v -6.814835 20.000000 -51.763809
v -14.547470 14.142136 -107.071068
v 6.845415 14.142136 -55.424057
v -9.474411 0.000000 -110.000000
v 12.503677 0.000000 -56.940189
v -40.455173 14.142136 -103.660255
v -36.794918 0.000000 -117.320511
v -46.113438 0.000000 -105.176384
v -23.134665 -14.142136 -113.660255
v -33.865986 -14.142136 -112.247452
v -40.455173 -14.142136 -103.660255
v -21.618538 0.000000 -119.318520
v -23.134665 14.142136 -113.660255
v -33.865986 14.142136 -112.247452
vn -0.8158 0.5784 -0.0000
vn -0.0000 -0.0000 -1.0000
vn -0.0000 1.0000 -0.0000
vn 0.3562 -0.9227 0.1475
vn -0.3562 -0.9227 -0.1475
vn -0.8546 -0.3799 -0.3540
vn -0.8546 0.3799 -0.3540
vn -0.3562 0.9227 -0.1475
vn 0.3562 0.9227 0.1475
vn 0.8546 0.3799 0.3540
vn 0.8546 -0.3799 0.3540
vn -0.0000 -1.0000 -0.0000
vn 0.3822 -0.9227 0.0503
vn 0.3827 -0.9239 -0.0000
vn -0.3822 -0.9227 -0.0503
vn -0.3753 -0.9256 -0.0494
vn -0.9171 -0.3799 -0.1207
vn -0.9171 0.3799 -0.1207
vn -0.3822 0.9227 -0.0503
vn 0.3822 0.9227 0.0503
vn 0.3500 0.8450 0.4043
vn 0.9805 -0.1966 -0.0000
vn 0.9171 0.3799 0.1207
vn 0.9171 -0.3799 0.1207
vn -0.7410 0.3574 0.5686
vn -0.9260 0.3574 -0.1219
vn 0.5686 -0.3574 0.7410
vn -0.7410 -0.3574 0.5686
vn -0.1219 -0.3574 0.9260
vn -0.0534 0.9125 0.4056
vn -0.1219 0.3574 0.9260
vn -0.4056 0.9125 -0.0534
vn -0.9260 -0.3574 -0.1219
vn 0.5686 0.3574 0.7410
vn -0.3246 -0.9125 0.2490
vn -0.4056 -0.9125 -0.0534
vn -0.3246 0.9125 0.2490
vn 0.2490 0.9125 0.3246
vn -0.0534 -0.9125 0.4056
vn 0.2490 -0.9125 0.3246
vn -0.0000 -0.0000 1.0000
vn 0.3562 -0.9227 -0.1475
vn -0.3562 -0.9227 0.1475
vn -0.8546 -0.3799 0.3540
vn -0.8546 0.3799 0.3540
vn -0.3562 0.9227 0.1475
vn 0.3562 0.9227 -0.1475
vn 0.8546 0.3799 -0.3540
vn 0.8546 -0.3799 -0.3540
vn 0.9805 0.1966 -0.0000
vn 0.3822 -0.9227 -0.0503
vn -0.3822 -0.9227 0.0503
vn -0.9171 -0.3799 0.1207
vn -0.3753 -0.9256 0.0494
vn -0.9171 0.3799 0.1207
vn -0.3822 0.9227 0.0503
vn 0.3822 0.9227 -0.0503
vn 0.3500 0.8450 -0.4043
vn 0.9171 0.3799 -0.1207
vn 0.9171 -0.3799 -0.1207
vn -0.7410 0.3574 -0.5686
vn -0.9260 0.3574 0.1219
vn 0.5686 -0.3574 -0.7410
vn -0.7410 -0.3574 -0.5686
vn -0.1219 -0.3574 -0.9260
vn -0.0534 0.9125 -0.4056
vn -0.1219 0.3574 -0.9260
vn -0.4056 0.9125 0.0534
vn -0.9260 -0.3574 0.1219
vn 0.5686 0.3574 -0.7410
vn -0.3246 -0.9125 -0.2490
vn -0.4056 -0.9125 0.0534
vn -0.3246 0.9125 -0.2490
vn 0.2490 0.9125 -0.3246
vn -0.0534 -0.9125 -0.4056
vn 0.2490 -0.9125 -0.3246
s 0
f 1//1 2//1 3//1
f 4//2 5//2 1//2
f 5//2 4//2 6//2
f 3//3 7//3 8//3
f 3//3 2//3 7//3
f 5//2 6//2 9//2
f 10//3 11//3 12//3
f 12//3 11//3 13//3
f 14//2 9//2 6//2
f 9//2 14//2 15//2
f 11//3 16//3 15//3
f 11//3 10//3 16//3
f 17//4 18//4 19//4
f 17//4 20//4 18//4
f 21//5 19//5 22//5
f 21//5 17//5 19//5
f 23//6 22//6 24//6
f 23//6 21//6 22//6
f 25//7 26//7 24//7
f 26//7 23//7 24//7
f 27//8 28//8 25//8
f 28//8 26//8 25//8
f 29//9 30//9 27//9
f 30//9 28//9 27//9
f 31//10 32//10 29//10
f 32//10 30//10 29//10
f 20//11 31//11 18//11
f 20//11 32//11 31//11
f 11//12 33//12 34//12
f 17//13 35//13 20//13
f 35//3 17//3 36//3
f 36//3 17//3 37//3
f 38//3 17//3 34//3
f 37//3 17//3 38//3
f 15//14 33//14 11//14
f 20//13 15//13 14//13
f 15//13 20//13 35//13
f 21//15 39//15 17//15
f 39//12 21//12 40//12
f 11//12 34//12 13//12
f 34//15 17//15 39//15
f 41//16 23//16 42//16
f 23//17 41//17 21//17
f 41//17 40//17 21//17
f 26//18 43//18 23//18
f 43//2 26//2 44//2
f 43//18 42//18 23//18
f 3//3 45//3 46//3
f 47//3 28//3 46//3
f 28//19 47//19 26//19
f 45//3 3//3 8//3
f 47//19 44//19 26//19
f 30//20 4//20 28//20
f 1//21 3//21 46//21
f 46//3 48//3 49//3
f 48//3 46//3 28//3
f 28//20 1//20 50//20
f 28//22 50//22 51//22
f 1//20 28//20 4//20
f 28//12 51//12 48//12
f 32//23 6//23 30//23
f 6//23 4//23 30//23
f 14//24 32//24 20//24
f 14//24 6//24 32//24
f 52//25 53//25 54//25
f 25//26 24//26 52//26
f 31//27 55//27 18//27
f 54//28 56//28 57//28
f 24//26 53//26 52//26
f 58//29 54//29 55//29
f 27//30 59//30 60//30
f 58//27 55//27 31//27
f 54//28 53//28 56//28
f 59//31 54//31 60//31
f 25//32 52//32 27//32
f 56//33 53//33 24//33
f 56//33 24//33 22//33
f 31//34 60//34 58//34
f 60//31 54//31 58//31
f 29//34 60//34 31//34
f 57//35 56//35 19//35
f 19//36 56//36 22//36
f 27//37 52//37 59//37
f 59//25 52//25 54//25
f 29//38 27//38 60//38
f 55//39 57//39 19//39
f 55//29 54//29 57//29
f 55//40 19//40 18//40
f 1//1 61//1 50//1
f 5//41 62//41 1//41
f 62//41 5//41 63//41
f 61//3 48//3 51//3
f 61//3 51//3 50//3
f 5//41 9//41 63//41
f 36//3 37//3 64//3
f 37//3 38//3 64//3
f 9//41 65//41 63//41
f 65//41 9//41 15//41
f 35//3 64//3 15//3
f 35//3 36//3 64//3
f 66//42 67//42 68//42
f 66//42 68//42 69//42
f 70//43 71//43 67//43
f 70//43 67//43 66//43
f 72//44 73//44 71//44
f 72//44 71//44 70//44
f 74//45 73//45 75//45
f 75//45 73//45 72//45
f 76//46 74//46 77//46
f 77//46 74//46 75//46
f 78//47 76//47 79//47
f 79//47 76//47 77//47
f 80//48 78//48 81//48
f 81//48 78//48 79//48
f 69//49 68//49 80//49
f 69//49 80//49 81//49
f 64//12 34//12 33//12
f 34//3 66//3 13//3
f 66//3 16//3 10//3
f 66//50 10//50 12//50
f 66//3 12//3 13//3
f 16//51 66//51 69//51
f 15//14 64//14 33//14
f 15//51 69//51 65//51
f 69//51 15//51 16//51
f 70//12 39//12 40//12
f 39//52 70//52 66//52
f 64//12 38//12 34//12
f 34//52 39//52 66//52
f 41//53 72//53 70//53
f 72//54 41//54 42//54
f 41//53 70//53 40//53
f 43//55 75//55 72//55
f 75//41 43//41 44//41
f 43//55 72//55 42//55
f 61//3 46//3 49//3
f 77//3 47//3 46//3
f 47//56 77//56 75//56
f 49//3 48//3 61//3
f 47//56 75//56 44//56
f 79//57 77//57 62//57
f 1//58 46//58 61//58
f 77//57 1//57 62//57
f 1//57 77//57 2//57
f 8//3 46//3 45//3
f 8//3 77//3 46//3
f 7//3 77//3 8//3
f 2//3 77//3 7//3
f 81//59 79//59 63//59
f 63//59 79//59 62//59
f 65//60 69//60 81//60
f 65//60 81//60 63//60
f 82//61 83//61 84//61
f 74//62 82//62 73//62
f 80//63 68//63 85//63
f 83//64 86//64 87//64
f 73//62 82//62 84//62
f 88//65 85//65 83//65
f 76//66 89//66 90//66
f 88//63 80//63 85//63
f 83//64 87//64 84//64
f 90//67 89//67 83//67
f 74//68 76//68 82//68
f 87//69 73//69 84//69
f 87//69 71//69 73//69
f 80//70 88//70 89//70
f 89//67 88//67 83//67
f 78//70 80//70 89//70
f 86//71 67//71 87//71
f 67//72 71//72 87//72
f 76//73 90//73 82//73
f 90//61 83//61 82//61
f 78//74 89//74 76//74
f 85//75 67//75 86//75
f 85//65 86//65 83//65
f 85//76 68//76 67//76
