# Blender 4.4.3
# www.blender.org
mtllib xwingmini.mtl
o xwingmini
v -10.000000 0.000000 30.000000
v 10.000000 9.710191 30.000000
v -10.000000 9.710191 30.000000
v 10.000000 0.000000 30.000000
v -10.000000 5.838273 22.500000
v -10.000000 9.263269 1.523140
v -10.000000 5.838273 1.520495
v -10.000000 9.263269 22.500000
v -10.000000 0.000000 0.000000
v -10.000000 15.000000 0.000000
v -10.000000 5.757345 1.522603
v -10.000000 5.736730 1.523140
v -10.000000 5.736730 22.500000
v -10.000000 9.283899 1.523677
v -10.000000 9.364812 1.525785
v -10.000000 9.364812 22.500000
v 10.000000 0.000000 0.000000
v 10.000000 15.000000 0.000000
v 10.000000 5.838273 1.520495
v 10.000000 9.263269 1.523140
v 10.000000 9.283899 1.523677
v 10.000000 9.364812 1.525785
v 10.000000 9.364812 22.500000
v 10.000000 9.263269 22.500000
v 10.000000 5.838273 22.500000
v 10.000000 5.736730 22.500000
v 10.000000 5.757345 1.522603
v 10.000000 5.736730 1.523140
v -49.240387 -1.182408 7.500000
v -49.240387 -1.182408 22.500000
v -49.257751 -1.083927 7.500000
v -49.257751 -1.083927 22.500000
v -49.240387 16.182407 22.500000
v -49.223022 16.280890 22.500000
v -49.240387 16.182407 7.500000
v -49.223022 16.280890 7.500000
v 49.240387 -1.182408 7.500000
v 49.240387 -1.182408 22.500000
v 49.257751 -1.083927 7.500000
v 49.257751 -1.083927 22.500000
v 49.240387 16.182407 22.500000
v 49.223022 16.280890 22.500000
v 49.240387 16.182407 7.500000
v 49.223022 16.280890 7.500000
v -6.666666 10.000000 -12.500000
v 6.666666 10.000000 -12.500000
v 5.000000 3.750000 -70.000000
v -5.000000 3.750000 -70.000000
vn -0.0000 -0.0000 1.0000
vn -1.0000 -0.0000 -0.0000
vn -1.0000 -0.0000 -0.0001
vn -0.0000 -1.0000 -0.0000
vn 1.0000 -0.0000 -0.0000
vn 1.0000 -0.0000 -0.0001
vn -0.0000 0.9848 0.1736
vn 0.1736 -0.9848 -0.0000
vn -0.1461 -0.0258 -0.9889
vn -0.9848 -0.1736 -0.0000
vn -0.1736 0.9848 -0.0000
vn -0.1736 -0.9848 -0.0000
vn -0.1461 0.0258 -0.9889
vn -0.1461 0.0257 -0.9889
vn -0.9848 0.1736 -0.0000
vn 0.1736 0.9848 -0.0000
vn 0.1461 -0.0258 -0.9889
vn 0.9848 -0.1736 -0.0000
vn 0.1461 0.0258 -0.9889
vn 0.1461 0.0257 -0.9889
vn 0.9848 0.1736 -0.0000
vn -0.0000 0.9285 -0.3714
vn 0.9662 -0.0000 -0.2577
vn 0.9660 0.2527 -0.0555
vn -0.9660 0.2527 -0.0555
vn -0.9662 -0.0000 -0.2577
vn -0.0000 -0.9986 -0.0535
vn -0.0000 0.9941 -0.1081
s 0
f 1//1 2//1 3//1
f 2//1 1//1 4//1
f 5//2 6//2 7//2
f 6//2 5//2 8//2
f 9//2 7//2 10//2
f 9//2 11//2 7//2
f 9//2 12//2 11//2
f 9//2 13//2 12//2
f 3//2 5//2 13//2
f 5//2 3//2 8//2
f 3//2 13//2 1//2
f 1//2 13//2 9//2
f 6//2 10//2 7//2
f 14//2 10//2 6//2
f 15//3 10//3 14//3
f 16//2 10//2 15//2
f 16//2 3//2 10//2
f 8//2 3//2 16//2
f 1//4 17//4 4//4
f 17//4 1//4 9//4
f 18//5 19//5 17//5
f 18//5 20//5 19//5
f 18//5 21//5 20//5
f 18//5 22//5 21//5
f 18//5 23//5 22//5
f 2//5 24//5 23//5
f 24//5 2//5 25//5
f 25//5 2//5 26//5
f 2//5 23//5 18//5
f 27//6 17//6 19//6
f 28//5 17//5 27//5
f 26//5 17//5 28//5
f 26//5 4//5 17//5
f 4//5 26//5 2//5
f 24//5 19//5 20//5
f 19//5 24//5 25//5
f 10//7 2//7 18//7
f 2//7 10//7 3//7
f 29//8 13//8 30//8
f 13//8 29//8 12//8
f 12//9 31//9 11//9
f 31//9 12//9 29//9
f 30//10 31//10 29//10
f 31//10 30//10 32//10
f 11//9 31//9 7//9
f 31//11 5//11 7//11
f 5//11 31//11 32//11
f 32//1 13//1 5//1
f 13//1 32//1 30//1
f 33//1 16//1 34//1
f 16//1 33//1 8//1
f 35//12 8//12 33//12
f 8//12 35//12 6//12
f 14//13 35//13 36//13
f 35//14 14//14 6//14
f 14//13 36//13 15//13
f 33//15 36//15 35//15
f 36//15 33//15 34//15
f 36//16 16//16 15//16
f 16//16 36//16 34//16
f 26//12 37//12 38//12
f 37//12 26//12 28//12
f 39//17 28//17 27//17
f 28//17 39//17 37//17
f 40//18 37//18 39//18
f 37//18 40//18 38//18
f 27//17 19//17 39//17
f 25//16 39//16 19//16
f 39//16 25//16 40//16
f 26//1 40//1 25//1
f 40//1 26//1 38//1
f 23//1 41//1 42//1
f 41//1 23//1 24//1
f 24//8 43//8 41//8
f 43//8 24//8 20//8
f 43//19 21//19 44//19
f 21//20 43//20 20//20
f 21//19 22//19 44//19
f 42//21 43//21 44//21
f 43//21 42//21 41//21
f 23//11 44//11 22//11
f 44//11 23//11 42//11
f 45//22 18//22 46//22
f 18//22 45//22 10//22
f 18//23 17//23 46//23
f 46//24 17//24 47//24
f 48//25 9//25 45//25
f 45//26 9//26 10//26
f 17//27 48//27 47//27
f 48//27 17//27 9//27
f 48//28 46//28 47//28
f 46//28 48//28 45//28
